<?xml version="1.0" standalone="no"?>
<!DOCTYPE svg PUBLIC "-//W3C//DTD SVG 20010904//EN"
 "http://www.w3.org/TR/2001/REC-SVG-20010904/DTD/svg10.dtd">
<svg version="1.0" xmlns="http://www.w3.org/2000/svg"
 width="162.000000pt" height="162.000000pt" viewBox="0 0 162.000000 162.000000"
 preserveAspectRatio="xMidYMid meet">
<metadata>
Created by potrace 1.14, written by Peter Selinger 2001-2017
</metadata>
<g transform="translate(0.000000,162.000000) scale(0.100000,-0.100000)"
fill="#000000" stroke="none">
<path d="M20 817 l0 -804 658 5 657 4 133 131 132 132 0 200 0 199 -67 68 -67
68 67 68 67 68 0 194 0 195 -138 138 -137 137 -653 0 -652 0 0 -803z m580 336
l0 -198 198 198 197 197 158 0 157 0 0 -200 0 -200 -357 0 -358 0 -127 -127
c-71 -70 -128 -131 -128 -135 0 -5 218 -8 485 -8 l485 0 0 -200 0 -200 -158 0
-157 0 -195 195 -195 195 -5 -192 -5 -193 -152 -3 -153 -3 0 536 0 535 155 0
155 0 0 -197z"/>
</g>
</svg>
